<svg width="36" height="36" viewBox="0 0 36 36" fill="none" xmlns="http://www.w3.org/2000/svg">
<circle cx="18.0164" cy="17.9016" r="17.4016" stroke="#45AEBE"/>
<path d="M27.8621 14.4277C27.8621 15.7766 26.7594 16.8891 25.4006 16.8891C24.0419 16.8891 22.9391 15.7766 22.9391 14.4277C22.9391 15.7766 21.8364 16.8891 20.4777 16.8891C19.1189 16.8891 18.0162 15.7766 18.0162 14.4277C18.0162 15.7766 16.9134 16.8891 15.5547 16.8891C14.196 16.8891 13.0932 15.7766 13.0932 14.4277C13.0932 15.7766 11.9905 16.8891 10.6318 16.8891C9.27303 16.8891 8.17029 15.7766 8.17029 14.4277L9.53887 9.09119C9.53887 9.09119 9.8244 8.02783 10.8287 8.02783H25.2037C26.208 8.02783 26.4935 9.09119 26.4935 9.09119L27.8621 14.4277ZM26.8775 18.0707V25.7505C26.8775 26.8335 25.9914 27.7196 24.9083 27.7196H11.1241C10.041 27.7196 9.15488 26.8335 9.15488 25.7505V18.0707C9.80213 18.3379 10.5094 18.4259 11.2024 18.3254C11.8954 18.2249 12.5486 17.9397 13.0932 17.4996C13.7726 18.0411 14.6292 18.366 15.5547 18.366C16.4901 18.366 17.3467 18.0411 18.0162 17.4996C18.6956 18.0411 19.5522 18.366 20.4777 18.366C21.413 18.366 22.2696 18.0411 22.9391 17.4996C23.6087 18.0411 24.4751 18.366 25.4006 18.366C25.9224 18.366 26.4246 18.2577 26.8775 18.0707ZM24.9083 23.1216C24.9083 22.9247 24.9083 22.7179 24.8591 22.5013L24.8296 22.3438H21.9053V23.4957H23.6874C23.6284 23.7124 23.5496 23.929 23.3822 24.1062C23.0573 24.4311 22.6142 24.6083 22.1416 24.6083C21.6493 24.6083 21.1669 24.4016 20.8124 24.057C20.1331 23.3579 20.1331 22.2256 20.8321 21.5167C21.5115 20.8275 22.6339 20.8275 23.3428 21.4872L23.4807 21.6152L24.3077 20.7783L24.1502 20.6404C23.5988 20.1284 22.8702 19.8429 22.1022 19.8429H22.0924C21.2949 19.8429 20.5466 20.1481 19.9854 20.6995C19.4045 21.2706 19.0795 22.0189 19.0795 22.7967C19.0795 23.5844 19.3848 24.313 19.946 24.8545C20.5308 25.4253 21.3146 25.7466 22.1318 25.7505H22.1515C22.9391 25.7505 23.6382 25.4649 24.1502 24.9628C24.6129 24.4902 24.9083 23.7813 24.9083 23.1216Z" fill="#45AEBE"/>
</svg>
